<svg width="223" height="223" viewBox="0 0 223 223" fill="none" xmlns="http://www.w3.org/2000/svg">
<path d="M107.589 99.843L111.087 103.289L114.596 99.854C118.236 96.29 150.35 64.73 156.845 54.163C161.066 47.298 162.948 40.407 162.948 31.82C162.947 10.93 147.252 0 131.748 0C123.216 0 116.128 2.934 111.138 8.404C107.319 4.226 100.901 0 90.568 0C72.238 0 59.436 13.085 59.436 31.82C59.436 40.37 61.329 47.26 65.572 54.163C72.063 64.725 103.972 96.279 107.589 99.843Z" fill="#6B25FF"/>
<path d="M114.794 122.54L111.296 119.094L107.787 122.529C104.147 126.093 72.034 157.652 65.538 168.22C61.318 175.085 59.436 181.977 59.436 190.563C59.436 211.454 75.131 222.383 90.635 222.383C99.165 222.383 106.253 219.448 111.244 213.978C115.062 218.157 121.48 222.383 131.814 222.383C150.144 222.383 162.946 209.298 162.946 190.563C162.946 182.015 161.053 175.125 156.81 168.22C150.319 157.658 118.411 126.104 114.794 122.54Z" fill="#F9D03F"/>
<path d="M213.978 111.138C218.157 107.32 222.383 100.902 222.383 90.568C222.383 72.239 209.298 59.437 190.564 59.437C182.013 59.437 175.123 61.33 168.221 65.573C157.659 72.064 126.104 103.972 122.54 107.59L119.094 111.088L122.529 114.597C126.093 118.237 157.653 150.351 168.22 156.846C175.083 161.066 181.975 162.948 190.564 162.948C211.454 162.948 222.383 147.254 222.383 131.75C222.383 123.217 219.448 116.129 213.978 111.138Z" fill="#1EFF85"/>
<path d="M99.843 114.794L103.289 111.296L99.854 107.787C96.29 104.147 64.731 72.033 54.164 65.538C47.301 61.318 40.409 59.436 31.82 59.436C10.93 59.437 0 75.131 0 90.635C0 99.166 2.935 106.254 8.406 111.245C4.227 115.063 0 121.481 0 131.815C0 150.144 13.085 162.946 31.82 162.946C40.371 162.946 47.261 161.053 54.163 156.81C64.726 150.319 96.28 118.411 99.843 114.794Z" fill="#25B1FF"/>
</svg>
